# xmcd
#
# Track frame offsets:
#	150
#	19387
#	37767
#	59077
#	81095
#	119650
#	139410
#	182532
#
# Disc length: 2743 seconds
#
# Revision: 0
# Processed by: cddbd v1.5.2PL0 Copyright (c) Steve Scherf et al.
# Submitted via: dBpowerAMP V4.0
#
DISCID=6f0ab508
DTITLE=Spirit Of Atlanta - The Burning Of Atlanta
DYEAR=1973
DGENRE=Funk
TTITLE0=Hunter Street
TTITLE1=Buttermilk Bottom
TTITLE2=Peachtree Street
TTITLE3=Aubern Avenue
TTITLE4=Vine City
TTITLE5=Freddie's Alive And Well
TTITLE6=Messin' Around
TTITLE7=Down Underground
EXTD=Sean P.
EXTT0=
EXTT1=
EXTT2=
EXTT3=
EXTT4=
EXTT5=
EXTT6=
EXTT7=
PLAYORDER=
